<svg viewBox="0 0 48 48" xmlns="http://www.w3.org/2000/svg"><rect x="22" y="14" width="6" height="5" rx="1" fill="#fff"/><rect x="14" y="14" width="6" height="5" rx="1" fill="#fff"/><rect x="6" y="14" width="6" height="5" rx="1" fill="#fff"/><rect x="14" y="8" width="6" height="5" rx="1" fill="#fff"/><rect x="22" y="8" width="6" height="5" rx="1" fill="#fff"/><rect x="30" y="14" width="6" height="5" rx="1" fill="#fff"/><path d="M2 22c0 0 2-1 4 0 0-2 2-3 3-3 0 0 1-3 5-3h24c3 0 6 3 6 7s-2 10-10 12c-6 2-18 1-24-3-4-2-6-5-8-10z" fill="none" stroke="#fff" stroke-width="1.5"/></svg>
