<svg viewBox="0 0 48 48" xmlns="http://www.w3.org/2000/svg"><path d="M24 4C12.95 4 4 12.95 4 24c0 8.84 5.73 16.34 13.68 18.98 1 .18 1.37-.43 1.37-.96v-3.37c-5.56 1.21-6.73-2.68-6.73-2.68-.91-2.31-2.22-2.93-2.22-2.93-1.82-1.24.14-1.22.14-1.22 2.01.14 3.07 2.07 3.07 2.07 1.79 3.06 4.69 2.18 5.83 1.66.18-1.29.7-2.18 1.27-2.68-4.44-.5-9.1-2.22-9.1-9.88 0-2.18.78-3.97 2.06-5.37-.21-.5-.89-2.54.2-5.29 0 0 1.68-.54 5.5 2.05A19.15 19.15 0 0124 13.1c1.7.01 3.42.23 5.02.68 3.82-2.59 5.49-2.05 5.49-2.05 1.1 2.75.41 4.79.2 5.29 1.28 1.4 2.06 3.19 2.06 5.37 0 7.68-4.67 9.37-9.12 9.87.72.62 1.36 1.84 1.36 3.71v5.5c0 .54.36 1.16 1.38.96C38.28 40.33 44 32.84 44 24 44 12.95 35.05 4 24 4z" fill="#666"/></svg>
